<mxfile host="app.diagrams.net" agent="Mozilla/5.0 (X11; Linux x86_64) AppleWebKit/537.36 (KHTML, like Gecko) Chrome/130.0.0.0 Safari/537.36" version="24.8.4">
  <diagram name="PÃ¡gina-1" id="0LtnSC1S1MljCSVt5p4q">
    <mxGraphModel dx="1231" dy="620" grid="1" gridSize="10" guides="1" tooltips="1" connect="0" arrows="1" fold="1" page="1" pageScale="1" pageWidth="827" pageHeight="1169" math="0" shadow="0">
      <root>
        <mxCell id="0" />
        <mxCell id="1" parent="0" />
        <mxCell id="zIQO2QtqG7fg5_mSGysL-1" value="" style="rounded=0;whiteSpace=wrap;html=1;" vertex="1" parent="1">
          <mxGeometry x="44" y="80" width="740" height="1000" as="geometry" />
        </mxCell>
        <mxCell id="zIQO2QtqG7fg5_mSGysL-7" style="edgeStyle=orthogonalEdgeStyle;rounded=0;orthogonalLoop=1;jettySize=auto;html=1;entryX=0;entryY=0.5;entryDx=0;entryDy=0;endArrow=none;endFill=0;" edge="1" parent="1" source="zIQO2QtqG7fg5_mSGysL-2" target="zIQO2QtqG7fg5_mSGysL-4">
          <mxGeometry relative="1" as="geometry" />
        </mxCell>
        <mxCell id="zIQO2QtqG7fg5_mSGysL-2" value="FACTURA" style="rounded=0;whiteSpace=wrap;html=1;" vertex="1" parent="1">
          <mxGeometry x="114" y="364" width="140" height="60" as="geometry" />
        </mxCell>
        <mxCell id="zIQO2QtqG7fg5_mSGysL-3" value="PRODUCTO" style="rounded=0;whiteSpace=wrap;html=1;" vertex="1" parent="1">
          <mxGeometry x="604" y="364" width="120" height="60" as="geometry" />
        </mxCell>
        <mxCell id="zIQO2QtqG7fg5_mSGysL-9" style="edgeStyle=orthogonalEdgeStyle;rounded=0;orthogonalLoop=1;jettySize=auto;html=1;entryX=0;entryY=0.5;entryDx=0;entryDy=0;endArrow=none;endFill=0;" edge="1" parent="1" source="zIQO2QtqG7fg5_mSGysL-4" target="zIQO2QtqG7fg5_mSGysL-3">
          <mxGeometry relative="1" as="geometry" />
        </mxCell>
        <mxCell id="zIQO2QtqG7fg5_mSGysL-4" value="tiene" style="rhombus;whiteSpace=wrap;html=1;rounded=0;" vertex="1" parent="1">
          <mxGeometry x="364" y="354" width="120" height="80" as="geometry" />
        </mxCell>
        <mxCell id="zIQO2QtqG7fg5_mSGysL-11" value="" style="endArrow=none;html=1;rounded=0;entryX=0;entryY=0.5;entryDx=0;entryDy=0;" edge="1" parent="1" target="zIQO2QtqG7fg5_mSGysL-13">
          <mxGeometry width="50" height="50" relative="1" as="geometry">
            <mxPoint x="424" y="354" as="sourcePoint" />
            <mxPoint x="424" y="329" as="targetPoint" />
          </mxGeometry>
        </mxCell>
        <mxCell id="zIQO2QtqG7fg5_mSGysL-13" value="cantidad" style="ellipse;whiteSpace=wrap;html=1;rotation=-90;" vertex="1" parent="1">
          <mxGeometry x="369" y="254" width="110" height="30" as="geometry" />
        </mxCell>
        <mxCell id="zIQO2QtqG7fg5_mSGysL-14" value="" style="endArrow=none;html=1;rounded=0;entryX=0;entryY=0.5;entryDx=0;entryDy=0;" edge="1" parent="1" target="zIQO2QtqG7fg5_mSGysL-15">
          <mxGeometry width="50" height="50" relative="1" as="geometry">
            <mxPoint x="115" y="364" as="sourcePoint" />
            <mxPoint x="115" y="339" as="targetPoint" />
          </mxGeometry>
        </mxCell>
        <mxCell id="zIQO2QtqG7fg5_mSGysL-15" value="&lt;b&gt;&lt;u&gt;num_factura&lt;/u&gt;&lt;/b&gt;" style="ellipse;whiteSpace=wrap;html=1;rotation=-90;" vertex="1" parent="1">
          <mxGeometry x="60" y="264" width="110" height="30" as="geometry" />
        </mxCell>
        <mxCell id="zIQO2QtqG7fg5_mSGysL-16" value="" style="endArrow=none;html=1;rounded=0;entryX=0;entryY=0.5;entryDx=0;entryDy=0;" edge="1" parent="1">
          <mxGeometry width="50" height="50" relative="1" as="geometry">
            <mxPoint x="150" y="364" as="sourcePoint" />
            <mxPoint x="150" y="334" as="targetPoint" />
          </mxGeometry>
        </mxCell>
        <mxCell id="zIQO2QtqG7fg5_mSGysL-17" value="dni" style="ellipse;whiteSpace=wrap;html=1;rotation=-90;" vertex="1" parent="1">
          <mxGeometry x="95" y="264" width="110" height="30" as="geometry" />
        </mxCell>
        <mxCell id="zIQO2QtqG7fg5_mSGysL-18" value="" style="endArrow=none;html=1;rounded=0;entryX=0;entryY=0.5;entryDx=0;entryDy=0;" edge="1" parent="1" target="zIQO2QtqG7fg5_mSGysL-19">
          <mxGeometry width="50" height="50" relative="1" as="geometry">
            <mxPoint x="185" y="364" as="sourcePoint" />
            <mxPoint x="185" y="339" as="targetPoint" />
          </mxGeometry>
        </mxCell>
        <mxCell id="zIQO2QtqG7fg5_mSGysL-19" value="num_cliente" style="ellipse;whiteSpace=wrap;html=1;rotation=-90;" vertex="1" parent="1">
          <mxGeometry x="130" y="264" width="110" height="30" as="geometry" />
        </mxCell>
        <mxCell id="zIQO2QtqG7fg5_mSGysL-20" value="" style="endArrow=none;html=1;rounded=0;entryX=0;entryY=0.5;entryDx=0;entryDy=0;" edge="1" parent="1" target="zIQO2QtqG7fg5_mSGysL-21">
          <mxGeometry width="50" height="50" relative="1" as="geometry">
            <mxPoint x="219" y="364" as="sourcePoint" />
            <mxPoint x="219" y="339" as="targetPoint" />
          </mxGeometry>
        </mxCell>
        <mxCell id="zIQO2QtqG7fg5_mSGysL-21" value="fecha" style="ellipse;whiteSpace=wrap;html=1;rotation=-90;" vertex="1" parent="1">
          <mxGeometry x="164" y="264" width="110" height="30" as="geometry" />
        </mxCell>
        <mxCell id="zIQO2QtqG7fg5_mSGysL-23" value="" style="endArrow=none;html=1;rounded=0;entryX=0;entryY=0.5;entryDx=0;entryDy=0;" edge="1" parent="1" target="zIQO2QtqG7fg5_mSGysL-24">
          <mxGeometry width="50" height="50" relative="1" as="geometry">
            <mxPoint x="253" y="364" as="sourcePoint" />
            <mxPoint x="253" y="339" as="targetPoint" />
          </mxGeometry>
        </mxCell>
        <mxCell id="zIQO2QtqG7fg5_mSGysL-24" value="importe" style="ellipse;whiteSpace=wrap;html=1;rotation=-90;" vertex="1" parent="1">
          <mxGeometry x="198" y="264" width="110" height="30" as="geometry" />
        </mxCell>
        <mxCell id="zIQO2QtqG7fg5_mSGysL-27" value="" style="endArrow=none;html=1;rounded=0;entryX=0;entryY=0.5;entryDx=0;entryDy=0;" edge="1" parent="1">
          <mxGeometry width="50" height="50" relative="1" as="geometry">
            <mxPoint x="604" y="454" as="sourcePoint" />
            <mxPoint x="604" y="424" as="targetPoint" />
          </mxGeometry>
        </mxCell>
        <mxCell id="zIQO2QtqG7fg5_mSGysL-28" value="&lt;b&gt;&lt;u&gt;cod_producto&lt;/u&gt;&lt;/b&gt;" style="ellipse;whiteSpace=wrap;html=1;rotation=-90;" vertex="1" parent="1">
          <mxGeometry x="549" y="494" width="110" height="30" as="geometry" />
        </mxCell>
        <mxCell id="zIQO2QtqG7fg5_mSGysL-29" value="" style="endArrow=none;html=1;rounded=0;entryX=0;entryY=0.5;entryDx=0;entryDy=0;" edge="1" parent="1">
          <mxGeometry width="50" height="50" relative="1" as="geometry">
            <mxPoint x="639" y="454" as="sourcePoint" />
            <mxPoint x="639" y="424" as="targetPoint" />
          </mxGeometry>
        </mxCell>
        <mxCell id="zIQO2QtqG7fg5_mSGysL-30" value="nombre_producto" style="ellipse;whiteSpace=wrap;html=1;rotation=-90;" vertex="1" parent="1">
          <mxGeometry x="584" y="494" width="110" height="30" as="geometry" />
        </mxCell>
        <mxCell id="zIQO2QtqG7fg5_mSGysL-31" value="" style="endArrow=none;html=1;rounded=0;entryX=0;entryY=0.5;entryDx=0;entryDy=0;" edge="1" parent="1">
          <mxGeometry width="50" height="50" relative="1" as="geometry">
            <mxPoint x="675" y="454" as="sourcePoint" />
            <mxPoint x="675" y="424" as="targetPoint" />
          </mxGeometry>
        </mxCell>
        <mxCell id="zIQO2QtqG7fg5_mSGysL-32" value="precio" style="ellipse;whiteSpace=wrap;html=1;rotation=-90;" vertex="1" parent="1">
          <mxGeometry x="620" y="494" width="110" height="30" as="geometry" />
        </mxCell>
        <mxCell id="zIQO2QtqG7fg5_mSGysL-33" value="&lt;font style=&quot;font-size: 14px;&quot;&gt;N : M&lt;/font&gt;" style="text;html=1;align=center;verticalAlign=middle;whiteSpace=wrap;rounded=0;" vertex="1" parent="1">
          <mxGeometry x="389" y="434" width="70" height="40" as="geometry" />
        </mxCell>
        <mxCell id="zIQO2QtqG7fg5_mSGysL-34" value="(0, 1)" style="text;html=1;align=center;verticalAlign=middle;whiteSpace=wrap;rounded=0;" vertex="1" parent="1">
          <mxGeometry x="264" y="354" width="60" height="30" as="geometry" />
        </mxCell>
        <mxCell id="zIQO2QtqG7fg5_mSGysL-35" value="(1, n)" style="text;html=1;align=center;verticalAlign=middle;whiteSpace=wrap;rounded=0;" vertex="1" parent="1">
          <mxGeometry x="534" y="354" width="60" height="30" as="geometry" />
        </mxCell>
        <mxCell id="zIQO2QtqG7fg5_mSGysL-36" style="edgeStyle=orthogonalEdgeStyle;rounded=0;orthogonalLoop=1;jettySize=auto;html=1;entryX=0;entryY=0.5;entryDx=0;entryDy=0;endArrow=none;endFill=0;" edge="1" parent="1" source="zIQO2QtqG7fg5_mSGysL-37" target="zIQO2QtqG7fg5_mSGysL-40">
          <mxGeometry relative="1" as="geometry" />
        </mxCell>
        <mxCell id="zIQO2QtqG7fg5_mSGysL-37" value="FACTURA" style="rounded=0;whiteSpace=wrap;html=1;" vertex="1" parent="1">
          <mxGeometry x="111" y="845" width="140" height="60" as="geometry" />
        </mxCell>
        <mxCell id="zIQO2QtqG7fg5_mSGysL-38" value="PRODUCTO" style="rounded=0;whiteSpace=wrap;html=1;" vertex="1" parent="1">
          <mxGeometry x="601" y="845" width="120" height="60" as="geometry" />
        </mxCell>
        <mxCell id="zIQO2QtqG7fg5_mSGysL-39" style="edgeStyle=orthogonalEdgeStyle;rounded=0;orthogonalLoop=1;jettySize=auto;html=1;entryX=0;entryY=0.5;entryDx=0;entryDy=0;endArrow=none;endFill=0;" edge="1" parent="1" source="zIQO2QtqG7fg5_mSGysL-40" target="zIQO2QtqG7fg5_mSGysL-38">
          <mxGeometry relative="1" as="geometry" />
        </mxCell>
        <mxCell id="zIQO2QtqG7fg5_mSGysL-40" value="tiene" style="rhombus;whiteSpace=wrap;html=1;rounded=0;" vertex="1" parent="1">
          <mxGeometry x="361" y="835" width="120" height="80" as="geometry" />
        </mxCell>
        <mxCell id="zIQO2QtqG7fg5_mSGysL-41" value="" style="endArrow=none;html=1;rounded=0;entryX=0;entryY=0.5;entryDx=0;entryDy=0;" edge="1" parent="1" target="zIQO2QtqG7fg5_mSGysL-42">
          <mxGeometry width="50" height="50" relative="1" as="geometry">
            <mxPoint x="421" y="835" as="sourcePoint" />
            <mxPoint x="421" y="810" as="targetPoint" />
          </mxGeometry>
        </mxCell>
        <mxCell id="zIQO2QtqG7fg5_mSGysL-42" value="cantidad" style="ellipse;whiteSpace=wrap;html=1;rotation=-90;" vertex="1" parent="1">
          <mxGeometry x="366" y="735" width="110" height="30" as="geometry" />
        </mxCell>
        <mxCell id="zIQO2QtqG7fg5_mSGysL-43" value="" style="endArrow=none;html=1;rounded=0;entryX=0;entryY=0.5;entryDx=0;entryDy=0;" edge="1" parent="1" target="zIQO2QtqG7fg5_mSGysL-44">
          <mxGeometry width="50" height="50" relative="1" as="geometry">
            <mxPoint x="112" y="845" as="sourcePoint" />
            <mxPoint x="112" y="820" as="targetPoint" />
          </mxGeometry>
        </mxCell>
        <mxCell id="zIQO2QtqG7fg5_mSGysL-44" value="&lt;b&gt;&lt;u&gt;num_factura&lt;/u&gt;&lt;/b&gt;" style="ellipse;whiteSpace=wrap;html=1;rotation=-90;" vertex="1" parent="1">
          <mxGeometry x="57" y="745" width="110" height="30" as="geometry" />
        </mxCell>
        <mxCell id="zIQO2QtqG7fg5_mSGysL-45" value="" style="endArrow=none;html=1;rounded=0;entryX=0;entryY=0.5;entryDx=0;entryDy=0;" edge="1" parent="1" target="zIQO2QtqG7fg5_mSGysL-46">
          <mxGeometry width="50" height="50" relative="1" as="geometry">
            <mxPoint x="147" y="845" as="sourcePoint" />
            <mxPoint x="147" y="820" as="targetPoint" />
          </mxGeometry>
        </mxCell>
        <mxCell id="zIQO2QtqG7fg5_mSGysL-46" value="dni" style="ellipse;whiteSpace=wrap;html=1;rotation=-90;" vertex="1" parent="1">
          <mxGeometry x="92" y="745" width="110" height="30" as="geometry" />
        </mxCell>
        <mxCell id="zIQO2QtqG7fg5_mSGysL-47" value="" style="endArrow=none;html=1;rounded=0;entryX=0;entryY=0.5;entryDx=0;entryDy=0;" edge="1" parent="1" target="zIQO2QtqG7fg5_mSGysL-48">
          <mxGeometry width="50" height="50" relative="1" as="geometry">
            <mxPoint x="182" y="845" as="sourcePoint" />
            <mxPoint x="182" y="820" as="targetPoint" />
          </mxGeometry>
        </mxCell>
        <mxCell id="zIQO2QtqG7fg5_mSGysL-48" value="num_cliente" style="ellipse;whiteSpace=wrap;html=1;rotation=-90;" vertex="1" parent="1">
          <mxGeometry x="127" y="745" width="110" height="30" as="geometry" />
        </mxCell>
        <mxCell id="zIQO2QtqG7fg5_mSGysL-49" value="" style="endArrow=none;html=1;rounded=0;entryX=0;entryY=0.5;entryDx=0;entryDy=0;" edge="1" parent="1" target="zIQO2QtqG7fg5_mSGysL-50">
          <mxGeometry width="50" height="50" relative="1" as="geometry">
            <mxPoint x="216" y="845" as="sourcePoint" />
            <mxPoint x="216" y="820" as="targetPoint" />
          </mxGeometry>
        </mxCell>
        <mxCell id="zIQO2QtqG7fg5_mSGysL-50" value="fecha" style="ellipse;whiteSpace=wrap;html=1;rotation=-90;" vertex="1" parent="1">
          <mxGeometry x="161" y="745" width="110" height="30" as="geometry" />
        </mxCell>
        <mxCell id="zIQO2QtqG7fg5_mSGysL-51" value="" style="endArrow=none;html=1;rounded=0;entryX=0;entryY=0.5;entryDx=0;entryDy=0;" edge="1" parent="1" target="zIQO2QtqG7fg5_mSGysL-52">
          <mxGeometry width="50" height="50" relative="1" as="geometry">
            <mxPoint x="250" y="845" as="sourcePoint" />
            <mxPoint x="250" y="820" as="targetPoint" />
          </mxGeometry>
        </mxCell>
        <mxCell id="zIQO2QtqG7fg5_mSGysL-52" value="importe" style="ellipse;whiteSpace=wrap;html=1;rotation=-90;" vertex="1" parent="1">
          <mxGeometry x="195" y="745" width="110" height="30" as="geometry" />
        </mxCell>
        <mxCell id="zIQO2QtqG7fg5_mSGysL-53" value="" style="endArrow=none;html=1;rounded=0;entryX=0;entryY=0.5;entryDx=0;entryDy=0;" edge="1" parent="1">
          <mxGeometry width="50" height="50" relative="1" as="geometry">
            <mxPoint x="601" y="935" as="sourcePoint" />
            <mxPoint x="601" y="905" as="targetPoint" />
          </mxGeometry>
        </mxCell>
        <mxCell id="zIQO2QtqG7fg5_mSGysL-54" value="&lt;b&gt;&lt;u&gt;cod_producto&lt;/u&gt;&lt;/b&gt;" style="ellipse;whiteSpace=wrap;html=1;rotation=-90;" vertex="1" parent="1">
          <mxGeometry x="546" y="975" width="110" height="30" as="geometry" />
        </mxCell>
        <mxCell id="zIQO2QtqG7fg5_mSGysL-55" value="" style="endArrow=none;html=1;rounded=0;entryX=0;entryY=0.5;entryDx=0;entryDy=0;" edge="1" parent="1">
          <mxGeometry width="50" height="50" relative="1" as="geometry">
            <mxPoint x="636" y="935" as="sourcePoint" />
            <mxPoint x="636" y="905" as="targetPoint" />
          </mxGeometry>
        </mxCell>
        <mxCell id="zIQO2QtqG7fg5_mSGysL-56" value="nombre_producto" style="ellipse;whiteSpace=wrap;html=1;rotation=-90;" vertex="1" parent="1">
          <mxGeometry x="581" y="975" width="110" height="30" as="geometry" />
        </mxCell>
        <mxCell id="zIQO2QtqG7fg5_mSGysL-57" value="" style="endArrow=none;html=1;rounded=0;entryX=0;entryY=0.5;entryDx=0;entryDy=0;" edge="1" parent="1">
          <mxGeometry width="50" height="50" relative="1" as="geometry">
            <mxPoint x="672" y="935" as="sourcePoint" />
            <mxPoint x="672" y="905" as="targetPoint" />
          </mxGeometry>
        </mxCell>
        <mxCell id="zIQO2QtqG7fg5_mSGysL-58" value="precio" style="ellipse;whiteSpace=wrap;html=1;rotation=-90;" vertex="1" parent="1">
          <mxGeometry x="617" y="975" width="110" height="30" as="geometry" />
        </mxCell>
        <mxCell id="zIQO2QtqG7fg5_mSGysL-59" value="&lt;font style=&quot;font-size: 14px;&quot;&gt;N : M&lt;/font&gt;" style="text;html=1;align=center;verticalAlign=middle;whiteSpace=wrap;rounded=0;" vertex="1" parent="1">
          <mxGeometry x="386" y="915" width="70" height="40" as="geometry" />
        </mxCell>
        <mxCell id="zIQO2QtqG7fg5_mSGysL-60" value="(0, 1)" style="text;html=1;align=center;verticalAlign=middle;whiteSpace=wrap;rounded=0;" vertex="1" parent="1">
          <mxGeometry x="261" y="835" width="60" height="30" as="geometry" />
        </mxCell>
        <mxCell id="zIQO2QtqG7fg5_mSGysL-61" value="(1, n)" style="text;html=1;align=center;verticalAlign=middle;whiteSpace=wrap;rounded=0;" vertex="1" parent="1">
          <mxGeometry x="531" y="835" width="60" height="30" as="geometry" />
        </mxCell>
      </root>
    </mxGraphModel>
  </diagram>
</mxfile>
